<?xml version="1.0" encoding="utf-8"?>
<!-- Generator: Adobe Illustrator 15.0.0, SVG Export Plug-In . SVG Version: 6.00 Build 0)  -->
<!DOCTYPE svg PUBLIC "-//W3C//DTD SVG 1.1//EN" "http://www.w3.org/Graphics/SVG/1.1/DTD/svg11.dtd">
<svg version="1.1" id="图形" xmlns="http://www.w3.org/2000/svg" xmlns:xlink="http://www.w3.org/1999/xlink" x="0px" y="0px"
	 width="180.5px" height="145.501px" viewBox="0 652.333 180.5 145.501" enable-background="new 0 652.333 180.5 145.501"
	 xml:space="preserve">
<path fill="#272636" d="M65.814,683.226c0.632,0,1.168,0.215,1.608,0.644s0.66,0.959,0.66,1.591v1.726
	c0,0.633-0.22,1.169-0.66,1.608c-0.44,0.44-0.976,0.66-1.608,0.66h-1.794c-0.609,0-1.134-0.22-1.574-0.66
	c-0.44-0.439-0.66-0.976-0.66-1.608v-1.726c0-0.632,0.22-1.162,0.66-1.591s0.965-0.644,1.574-0.644H65.814z M89.036,683.226
	c0.609,0,1.134,0.215,1.574,0.644s0.66,0.959,0.66,1.591v1.726c0,0.633-0.22,1.169-0.66,1.608c-0.44,0.44-0.965,0.66-1.574,0.66
	H74.582c-0.632,0-1.168-0.22-1.608-0.66c-0.439-0.439-0.66-0.976-0.66-1.608v-1.726c0-0.632,0.22-1.162,0.66-1.591
	c0.44-0.429,0.977-0.644,1.608-0.644H89.036z M65.814,693.753c0.632,0,1.168,0.221,1.608,0.661c0.44,0.439,0.66,0.976,0.66,1.607
	v1.727c0,0.609-0.22,1.134-0.66,1.573c-0.44,0.44-0.976,0.661-1.608,0.661h-1.794c-0.609,0-1.134-0.221-1.574-0.661
	c-0.44-0.439-0.66-0.964-0.66-1.573v-1.727c0-0.632,0.22-1.168,0.66-1.607c0.44-0.44,0.965-0.661,1.574-0.661H65.814z
	 M89.036,693.753c0.609,0,1.134,0.221,1.574,0.661c0.44,0.439,0.66,0.976,0.66,1.607v1.727c0,0.609-0.22,1.134-0.66,1.573
	c-0.44,0.44-0.965,0.661-1.574,0.661H74.582c-0.632,0-1.168-0.221-1.608-0.661c-0.439-0.439-0.66-0.964-0.66-1.573v-1.727
	c0-0.632,0.22-1.168,0.66-1.607c0.44-0.44,0.977-0.661,1.608-0.661H89.036z M65.814,704.315c0.632,0,1.168,0.22,1.608,0.659
	c0.44,0.44,0.66,0.965,0.66,1.574v1.727c0,0.632-0.22,1.168-0.66,1.608c-0.44,0.439-0.976,0.66-1.608,0.66h-1.794
	c-0.609,0-1.134-0.221-1.574-0.66c-0.44-0.44-0.66-0.977-0.66-1.608v-1.727c0-0.609,0.22-1.134,0.66-1.574
	c0.44-0.439,0.965-0.659,1.574-0.659H65.814z M89.036,704.315c0.609,0,1.134,0.22,1.574,0.659c0.44,0.44,0.66,0.965,0.66,1.574
	v1.727c0,0.632-0.22,1.168-0.66,1.608c-0.44,0.439-0.965,0.66-1.574,0.66H74.582c-0.632,0-1.168-0.221-1.608-0.66
	c-0.439-0.44-0.66-0.977-0.66-1.608v-1.727c0-0.609,0.22-1.134,0.66-1.574c0.44-0.439,0.977-0.659,1.608-0.659H89.036z"/>
<path fill="#FFFFFF" d="M65.814,724.226c0.632,0,1.168,0.215,1.608,0.644s0.66,0.959,0.66,1.591v1.726
	c0,0.633-0.22,1.169-0.66,1.608c-0.44,0.44-0.976,0.66-1.608,0.66h-1.794c-0.609,0-1.134-0.22-1.574-0.66
	c-0.44-0.439-0.66-0.976-0.66-1.608v-1.726c0-0.632,0.22-1.162,0.66-1.591s0.965-0.644,1.574-0.644H65.814z M89.036,724.226
	c0.609,0,1.134,0.215,1.574,0.644s0.66,0.959,0.66,1.591v1.726c0,0.633-0.22,1.169-0.66,1.608c-0.44,0.44-0.965,0.66-1.574,0.66
	H74.582c-0.632,0-1.168-0.22-1.608-0.66c-0.439-0.439-0.66-0.976-0.66-1.608v-1.726c0-0.632,0.22-1.162,0.66-1.591
	c0.44-0.429,0.977-0.644,1.608-0.644H89.036z M65.814,734.753c0.632,0,1.168,0.221,1.608,0.661c0.44,0.439,0.66,0.976,0.66,1.607
	v1.727c0,0.609-0.22,1.134-0.66,1.573c-0.44,0.44-0.976,0.661-1.608,0.661h-1.794c-0.609,0-1.134-0.221-1.574-0.661
	c-0.44-0.439-0.66-0.964-0.66-1.573v-1.727c0-0.632,0.22-1.168,0.66-1.607c0.44-0.44,0.965-0.661,1.574-0.661H65.814z
	 M89.036,734.753c0.609,0,1.134,0.221,1.574,0.661c0.44,0.439,0.66,0.976,0.66,1.607v1.727c0,0.609-0.22,1.134-0.66,1.573
	c-0.44,0.44-0.965,0.661-1.574,0.661H74.582c-0.632,0-1.168-0.221-1.608-0.661c-0.439-0.439-0.66-0.964-0.66-1.573v-1.727
	c0-0.632,0.22-1.168,0.66-1.607c0.44-0.44,0.977-0.661,1.608-0.661H89.036z M65.814,745.315c0.632,0,1.168,0.22,1.608,0.659
	c0.44,0.44,0.66,0.965,0.66,1.574v1.727c0,0.632-0.22,1.168-0.66,1.608c-0.44,0.439-0.976,0.66-1.608,0.66h-1.794
	c-0.609,0-1.134-0.221-1.574-0.66c-0.44-0.44-0.66-0.977-0.66-1.608v-1.727c0-0.609,0.22-1.134,0.66-1.574
	c0.44-0.439,0.965-0.659,1.574-0.659H65.814z M89.036,745.315c0.609,0,1.134,0.22,1.574,0.659c0.44,0.44,0.66,0.965,0.66,1.574
	v1.727c0,0.632-0.22,1.168-0.66,1.608c-0.44,0.439-0.965,0.66-1.574,0.66H74.582c-0.632,0-1.168-0.221-1.608-0.66
	c-0.439-0.44-0.66-0.977-0.66-1.608v-1.727c0-0.609,0.22-1.134,0.66-1.574c0.44-0.439,0.977-0.659,1.608-0.659H89.036z"/>
<path fill="#272636" d="M120.853,692.372c0-5.235-4.296-9.479-9.595-9.479s-9.594,4.244-9.594,9.479
	c0,3.022,1.437,5.708,3.667,7.443c-3.999,2.014-6.814,6.024-7.125,10.685h1.435c0.336-4.364,3.168-8.228,7.12-9.764
	c1.256,0.597,3.01,1.113,4.497,1.113s2.889-0.343,4.145-0.939l0.984-0.57l0.797-0.524
	C119.415,698.08,120.853,695.395,120.853,692.372z M111.258,700.306c-4.437,0-8.032-3.552-8.032-7.935
	c0-4.382,3.595-7.935,8.032-7.935c4.436,0,8.032,3.553,8.032,7.935C119.29,696.754,115.872,700.306,111.258,700.306z
	 M119.375,701.208l-0.007,0.011c-0.157-0.15-0.366-0.244-0.6-0.244c-0.483,0-0.873,0.184-0.873,0.666
	c0,0.333,0.192,0.611,0.466,0.759l-0.006,0.009c2.623,1.875,3.946,4.714,4.207,8.092h1.748
	C124.059,706.747,122.184,703.407,119.375,701.208z"/>
<path fill="#FFFFFF" d="M120.853,733.372c0-5.235-4.296-9.479-9.595-9.479s-9.594,4.244-9.594,9.479
	c0,3.022,1.437,5.708,3.667,7.443c-3.999,2.014-6.814,6.024-7.125,10.685h1.435c0.336-4.364,3.168-8.228,7.12-9.764
	c1.256,0.597,3.01,1.113,4.497,1.113s2.889-0.343,4.145-0.939l0.984-0.57l0.797-0.524
	C119.415,739.08,120.853,736.395,120.853,733.372z M111.258,741.306c-4.437,0-8.032-3.552-8.032-7.935
	c0-4.382,3.595-7.935,8.032-7.935c4.436,0,8.032,3.553,8.032,7.935C119.29,737.754,115.872,741.306,111.258,741.306z
	 M119.375,742.208l-0.007,0.011c-0.157-0.15-0.366-0.244-0.6-0.244c-0.483,0-0.873,0.184-0.873,0.666
	c0,0.333,0.192,0.611,0.466,0.759l-0.006,0.009c2.623,1.875,3.946,4.714,4.207,8.092h1.748
	C124.059,747.747,122.184,744.407,119.375,742.208z"/>
<path fill="#272636" d="M34.768,705.116c0.375,0,0.73,0.069,1.065,0.207c0.335,0.139,0.626,0.331,0.873,0.577
	c0.247,0.247,0.443,0.538,0.592,0.873c0.147,0.335,0.222,0.69,0.222,1.065s-0.074,0.73-0.222,1.065
	c-0.148,0.335-0.345,0.626-0.592,0.873c-0.247,0.247-0.538,0.443-0.873,0.592c-0.335,0.147-0.691,0.222-1.065,0.222
	c-0.395,0-0.759-0.074-1.095-0.222c-0.335-0.148-0.626-0.345-0.873-0.592c-0.247-0.247-0.444-0.538-0.592-0.873
	s-0.222-0.69-0.222-1.065s0.074-0.73,0.222-1.065s0.345-0.626,0.592-0.873c0.247-0.246,0.538-0.438,0.873-0.577
	C34.008,705.186,34.373,705.116,34.768,705.116L34.768,705.116z M47.078,705.176c0.375,0,0.735,0.069,1.081,0.207
	s0.641,0.331,0.888,0.577s0.444,0.537,0.592,0.873c0.148,0.335,0.222,0.69,0.222,1.065c0,0.374-0.074,0.729-0.222,1.064
	c-0.148,0.336-0.345,0.627-0.592,0.874c-0.247,0.246-0.542,0.443-0.888,0.592c-0.345,0.147-0.706,0.222-1.081,0.222
	c-0.375,0-0.729-0.074-1.065-0.222c-0.335-0.148-0.626-0.346-0.873-0.592c-0.247-0.247-0.444-0.538-0.592-0.874
	c-0.148-0.335-0.222-0.69-0.222-1.064c0-0.375,0.074-0.73,0.222-1.065c0.148-0.336,0.346-0.627,0.592-0.873s0.538-0.439,0.873-0.577
	C46.349,705.245,46.704,705.176,47.078,705.176L47.078,705.176z M52.05,688.366c0.553,0,0.981,0.074,1.287,0.223
	c0.306,0.147,0.523,0.33,0.651,0.547c0.128,0.217,0.188,0.449,0.177,0.696c-0.009,0.246-0.044,0.458-0.103,0.636
	c-0.06,0.178-0.188,0.543-0.385,1.095c-0.198,0.553-0.409,1.159-0.636,1.82s-0.454,1.317-0.681,1.968
	c-0.227,0.651-0.409,1.164-0.547,1.539c-0.256,0.789-0.577,1.336-0.961,1.643c-0.385,0.306-0.863,0.458-1.436,0.458H48.38h-1.894H44
	h-2.781H33.88l0.414,2.664h14.945c0.947,0,1.42,0.404,1.42,1.213c0,0.395-0.094,0.734-0.281,1.021s-0.558,0.43-1.11,0.43h-1.42
	h-2.723h-3.433H38.23h-2.871h-1.598c-0.395,0-0.725-0.089-0.992-0.267c-0.266-0.178-0.487-0.408-0.665-0.695
	c-0.178-0.286-0.321-0.597-0.43-0.932c-0.108-0.336-0.192-0.651-0.251-0.947c-0.02-0.118-0.074-0.404-0.163-0.858
	c-0.089-0.453-0.197-1.021-0.326-1.702c-0.128-0.681-0.271-1.44-0.429-2.278c-0.158-0.839-0.315-1.682-0.473-2.53
	c-0.375-1.992-0.799-4.212-1.272-6.658h-2.22c-0.295,0-0.542-0.073-0.739-0.222c-0.197-0.147-0.36-0.325-0.488-0.533
	c-0.128-0.207-0.217-0.429-0.267-0.665c-0.049-0.237-0.074-0.454-0.074-0.651c0-0.395,0.133-0.72,0.399-0.977
	c0.267-0.256,0.626-0.385,1.081-0.385h0.621h0.621h0.74h1.006c0.394,0,0.71,0.06,0.947,0.178s0.424,0.266,0.563,0.443
	c0.138,0.178,0.237,0.365,0.295,0.563c0.059,0.197,0.109,0.365,0.148,0.504c0.04,0.157,0.08,0.379,0.119,0.665
	c0.04,0.286,0.079,0.577,0.119,0.873c0.059,0.355,0.118,0.729,0.177,1.124H52.05z M49.831,687.42H38.999l3.907-3.907
	c0.454-0.453,0.952-0.686,1.494-0.694c0.542-0.01,1.041,0.212,1.495,0.665L49.831,687.42z"/>
<path fill="#FFFFFF" d="M34.768,746.116c0.375,0,0.73,0.069,1.065,0.207c0.335,0.139,0.626,0.331,0.873,0.577
	c0.247,0.247,0.443,0.538,0.592,0.873c0.147,0.335,0.222,0.69,0.222,1.065s-0.074,0.73-0.222,1.065
	c-0.148,0.335-0.345,0.626-0.592,0.873c-0.247,0.247-0.538,0.443-0.873,0.592c-0.335,0.147-0.691,0.222-1.065,0.222
	c-0.395,0-0.759-0.074-1.095-0.222c-0.335-0.148-0.626-0.345-0.873-0.592c-0.247-0.247-0.444-0.538-0.592-0.873
	s-0.222-0.69-0.222-1.065s0.074-0.73,0.222-1.065s0.345-0.626,0.592-0.873c0.247-0.246,0.538-0.438,0.873-0.577
	C34.008,746.186,34.373,746.116,34.768,746.116L34.768,746.116z M47.078,746.176c0.375,0,0.735,0.069,1.081,0.207
	s0.641,0.331,0.888,0.577s0.444,0.537,0.592,0.873c0.148,0.335,0.222,0.69,0.222,1.065c0,0.374-0.074,0.729-0.222,1.064
	c-0.148,0.336-0.345,0.627-0.592,0.874c-0.247,0.246-0.542,0.443-0.888,0.592c-0.345,0.147-0.706,0.222-1.081,0.222
	c-0.375,0-0.729-0.074-1.065-0.222c-0.335-0.148-0.626-0.346-0.873-0.592c-0.247-0.247-0.444-0.538-0.592-0.874
	c-0.148-0.335-0.222-0.69-0.222-1.064c0-0.375,0.074-0.73,0.222-1.065c0.148-0.336,0.346-0.627,0.592-0.873s0.538-0.439,0.873-0.577
	C46.349,746.245,46.704,746.176,47.078,746.176L47.078,746.176z M52.05,729.366c0.553,0,0.981,0.074,1.287,0.223
	c0.306,0.147,0.523,0.33,0.651,0.547c0.128,0.217,0.188,0.449,0.177,0.696c-0.009,0.246-0.044,0.458-0.103,0.636
	c-0.06,0.178-0.188,0.543-0.385,1.095c-0.198,0.553-0.409,1.159-0.636,1.82s-0.454,1.317-0.681,1.968
	c-0.227,0.651-0.409,1.164-0.547,1.539c-0.256,0.789-0.577,1.336-0.961,1.643c-0.385,0.306-0.863,0.458-1.436,0.458H48.38h-1.894H44
	h-2.781H33.88l0.414,2.664h14.945c0.947,0,1.42,0.404,1.42,1.213c0,0.395-0.094,0.734-0.281,1.021s-0.558,0.43-1.11,0.43h-1.42
	h-2.723h-3.433H38.23h-2.871h-1.598c-0.395,0-0.725-0.089-0.992-0.267c-0.266-0.178-0.487-0.408-0.665-0.695
	c-0.178-0.286-0.321-0.597-0.43-0.932c-0.108-0.336-0.192-0.651-0.251-0.947c-0.02-0.118-0.074-0.404-0.163-0.858
	c-0.089-0.453-0.197-1.021-0.326-1.702c-0.128-0.681-0.271-1.44-0.429-2.278c-0.158-0.839-0.315-1.682-0.473-2.53
	c-0.375-1.992-0.799-4.212-1.272-6.658h-2.22c-0.295,0-0.542-0.073-0.739-0.222c-0.197-0.147-0.36-0.325-0.488-0.533
	c-0.128-0.207-0.217-0.429-0.267-0.665c-0.049-0.237-0.074-0.454-0.074-0.651c0-0.395,0.133-0.72,0.399-0.977
	c0.267-0.256,0.626-0.385,1.081-0.385h0.621h0.621h0.74h1.006c0.394,0,0.71,0.06,0.947,0.178s0.424,0.266,0.563,0.443
	c0.138,0.178,0.237,0.365,0.295,0.563c0.059,0.197,0.109,0.365,0.148,0.504c0.04,0.157,0.08,0.379,0.119,0.665
	c0.04,0.286,0.079,0.577,0.119,0.873c0.059,0.355,0.118,0.729,0.177,1.124H52.05z M49.831,728.42H38.999l3.907-3.907
	c0.454-0.453,0.952-0.686,1.494-0.694c0.542-0.01,1.041,0.212,1.495,0.665L49.831,728.42z"/>
<path fill="#272636" d="M152.03,701.049c3.753-4.245,3.599-10.734-0.462-14.797c-4.222-4.221-11.067-4.221-15.289,0
	c-4.222,4.223-4.222,11.066,0,15.29c4.061,4.061,10.55,4.214,14.796,0.462l8.22,8.22l0.955-0.955L152.03,701.049z M151.057,700.142
	l-0.887,0.887c-3.722,3.269-9.396,3.126-12.95-0.429c-3.702-3.701-3.702-9.705,0-13.406c3.703-3.703,9.706-3.703,13.408,0
	C154.181,690.746,154.323,696.417,151.057,700.142z"/>
<path fill="#FFFFFF" d="M152.03,742.049c3.753-4.245,3.599-10.734-0.462-14.797c-4.222-4.221-11.067-4.221-15.289,0
	c-4.222,4.223-4.222,11.066,0,15.29c4.061,4.061,10.55,4.214,14.796,0.462l8.22,8.22l0.955-0.955L152.03,742.049z M151.057,741.142
	l-0.887,0.887c-3.722,3.269-9.396,3.126-12.95-0.429c-3.702-3.701-3.702-9.705,0-13.406c3.703-3.703,9.706-3.703,13.408,0
	C154.181,731.746,154.323,737.417,151.057,741.142z"/>
</svg>
